<svg enable-background="new 0 0 32 32" height="512" viewBox="0 0 32 32" width="512" xmlns="http://www.w3.org/2000/svg"><g id="BG"><path d="m26 32h-20c-3.314 0-6-2.686-6-6v-20c0-3.314 2.686-6 6-6h20c3.314 0 6 2.686 6 6v20c0 3.314-2.686 6-6 6z" fill="#e3f8fa"/></g><g id="Layer_1"><circle cx="14" cy="11.833" fill="#26c6da" r="3.333"/><path d="m16.833 16.5h-5.667c-1.745 0-3.166 1.421-3.166 3.167v2.333c0 .276.224.5.5.5h11c.276 0 .5-.224.5-.5v-2.333c0-1.746-1.421-3.167-3.167-3.167z" fill="#26c6da"/><path d="m23.841 14.133-2.333-2.167c-.094-.088-.216-.133-.34-.133-.33 0-.5.281-.5.499v1.5h-2.668c-.368 0-.667.299-.667.667s.298.667.667.667h2.667v1.5c0 .277.225.5.5.5.124 0 .246-.046.34-.133l2.333-2.167c.102-.094.16-.227.16-.366s-.058-.272-.159-.367z" fill="#8ce1eb"/></g></svg>